<?xml version="1.0" encoding="UTF-8"?>
<!--
  Original xubamp application icon.
  Copyright 2026 xubamp contributors.
  SPDX-License-Identifier: GPL-2.0-or-later
-->
<svg xmlns="http://www.w3.org/2000/svg"
     width="1024"
     height="1024"
     viewBox="0 0 1024 1024"
     role="img"
     aria-labelledby="title description">
  <title id="title">xubamp audio player</title>
  <desc id="description">A rounded audio player with equalizer bars and playback controls.</desc>

  <defs>
    <linearGradient id="case" x1="0" y1="0" x2="1" y2="1">
      <stop offset="0" stop-color="#242b42"/>
      <stop offset="1" stop-color="#10131f"/>
    </linearGradient>
    <linearGradient id="display" x1="0" y1="0" x2="0" y2="1">
      <stop offset="0" stop-color="#12182a"/>
      <stop offset="1" stop-color="#080b12"/>
    </linearGradient>
    <linearGradient id="meter" x1="0" y1="1" x2="0" y2="0">
      <stop offset="0" stop-color="#63f5c2"/>
      <stop offset="0.58" stop-color="#42d8f5"/>
      <stop offset="1" stop-color="#8c83ff"/>
    </linearGradient>
  </defs>

  <rect x="56" y="56" width="912" height="912" rx="208" fill="url(#case)"/>
  <rect x="72" y="72" width="880" height="880" rx="192"
        fill="none" stroke="#596683" stroke-width="20"/>
  <rect x="112" y="112" width="800" height="800" rx="154"
        fill="none" stroke="#303950" stroke-width="8"/>

  <rect x="152" y="170" width="720" height="412" rx="72"
        fill="url(#display)" stroke="#47536f" stroke-width="12"/>
  <path d="M208 514H816" fill="none" stroke="#29354a" stroke-width="12"
        stroke-linecap="round"/>

  <g fill="url(#meter)">
    <rect x="210" y="386" width="44" height="94" rx="18"/>
    <rect x="280" y="316" width="44" height="164" rx="18"/>
    <rect x="350" y="242" width="44" height="238" rx="18"/>
    <rect x="420" y="346" width="44" height="134" rx="18"/>
    <rect x="490" y="278" width="44" height="202" rx="18"/>
    <rect x="560" y="218" width="44" height="262" rx="18"/>
    <rect x="630" y="330" width="44" height="150" rx="18"/>
    <rect x="700" y="266" width="44" height="214" rx="18"/>
    <rect x="770" y="368" width="44" height="112" rx="18"/>
  </g>

  <g fill="#b9c3d9">
    <path d="M244 752L330 696V808Z"/>
    <rect x="220" y="696" width="28" height="112" rx="12"/>
    <path d="M780 752L694 696V808Z"/>
    <rect x="776" y="696" width="28" height="112" rx="12"/>
  </g>

  <circle cx="512" cy="752" r="116" fill="#242d43" stroke="#6d7cff" stroke-width="18"/>
  <path d="M478 682L584 752L478 822Z" fill="#63f5c2"/>
</svg>
